Coordinates
version=1
nRows=20
nColumns=33
inDegrees=yes

Units are S.I. units (second, meters, Newtons, ...)
Angles are in degrees.

endheader
time	ground_thorax_rot_x	ground_thorax_rot_y	ground_thorax_rot_z	ground_thorax_tx	ground_thorax_ty	ground_thorax_tz	clav_prot_r	clav_elev_r	scapula_abduction_r	scapula_elevation_r	scapula_upward_rot_r	scapula_winging_r	shoulder_elv_r	plane_of_elev_r	axial_rot_r	elbow_flexion_r	pro_sup_r	wrist_flex_r	wrist_dev_r	clav_prot_l	clav_elev_l	scapula_abduction_l	scapula_elevation_l	scapula_upward_rot_l	scapula_winging_l	shoulder_elv_l	plane_of_elev_l	axial_rot_l	elbow_flexion_l	pro_sup_l	wrist_flex_l	wrist_dev_l	
4.5300	36.217821	18.096029	22.570314	-275.525907	826.534065	8.866334	12.034494	36.619675	35.348946	45.000000	-43.232014	2429.447983	-1011.606390	32.771652	57.288912	1100.737489	104.668293	10.959578	3.491537	8.446371	-45.000000	-35.650224	45.000000	-45.000000	-2056.470139	268.494629	139.873258	144.206907	737.883250	94.402117	-1.850353	-13.135942	
4.5400	36.214379	18.098064	22.550925	-275.253866	826.398894	8.922992	12.034118	36.615059	35.358935	45.000000	-43.276770	2429.473653	-1011.620493	32.779070	57.303925	1100.732538	104.817961	10.954647	3.523768	8.467656	-45.000000	-35.667969	45.000000	-45.000000	-2056.485873	268.472251	139.885540	144.198612	737.854202	94.124243	-1.834138	-13.140566	
4.5500	36.212026	18.097453	22.525144	-274.967708	826.268225	8.981188	12.023259	36.629422	35.360540	45.000000	-43.343206	2429.523574	-1011.628626	32.797158	57.336743	1100.694057	104.971880	10.944621	3.569033	8.485516	-45.000000	-35.699653	45.000000	-45.000000	-2056.550177	268.445611	139.946498	144.186008	737.823003	93.851112	-1.818445	-13.161466	
4.5600	36.208193	18.102870	22.514463	-274.645146	826.147903	9.043864	12.026109	36.633896	35.366439	45.000000	-43.357169	2429.538060	-1011.642550	32.802372	57.362769	1100.696618	105.140494	10.937874	3.597761	8.499690	-45.000000	-35.700053	45.000000	-45.000000	-2056.579499	268.430698	139.956011	144.210783	737.789599	93.579232	-1.804205	-13.167092	
4.5700	36.204574	18.102701	22.504003	-274.289144	826.036905	9.109846	12.032577	36.633684	35.379967	45.000000	-43.345719	2429.538813	-1011.660080	32.800430	57.392517	1100.716860	105.322279	10.934034	3.618501	8.511239	-45.000000	-35.694402	45.000000	-45.000000	-2056.590694	268.418679	139.937120	144.258048	737.762714	93.310532	-1.792503	-13.166339	
4.5800	36.197053	18.107715	22.501161	-273.899852	825.935065	9.178040	12.044175	36.641593	35.386269	45.000000	-43.324704	2429.536437	-1011.670128	32.796753	57.432827	1100.746665	105.515887	10.931128	3.634049	8.516562	-45.000000	-35.686047	45.000000	-45.000000	-2056.618202	268.414493	139.927348	144.326374	737.745214	93.048177	-1.785131	-13.166532	
4.5900	36.189081	18.105018	22.496486	-273.483236	825.840584	9.246141	12.054715	36.643337	35.406764	45.000000	-43.291565	2429.525195	-1011.682266	32.783232	57.475346	1100.784519	105.718596	10.931634	3.644655	8.519457	-45.000000	-35.687283	45.000000	-45.000000	-2056.628101	268.407035	139.894602	144.407696	737.736304	92.795174	-1.779787	-13.161817	
4.6000	36.175682	18.103202	22.497907	-273.047371	825.751606	9.311237	12.064408	36.655358	35.416934	45.000000	-43.265021	2429.521155	-1011.684016	32.777198	57.527766	1100.819477	105.927259	10.930188	3.655513	8.518756	-45.000000	-35.692424	45.000000	-45.000000	-2056.664806	268.408176	139.886681	144.494715	737.734312	92.553246	-1.777999	-13.164207	
4.6100	36.158332	18.096253	22.507468	-272.598469	825.667112	9.370569	12.072521	36.661853	35.439171	45.000000	-43.234106	2429.511838	-1011.687043	32.762876	57.578609	1100.858576	106.140060	10.931050	3.663288	8.515815	-45.000000	-35.708929	45.000000	-45.000000	-2056.683760	268.405576	139.865512	144.588282	737.731333	92.323524	-1.775234	-13.161322	
4.6200	36.136590	18.089400	22.525956	-272.141873	825.587097	9.421526	12.081026	36.675930	35.446375	45.000000	-43.211199	2429.511782	-1011.681620	32.761080	57.634183	1100.888208	106.355622	10.927877	3.672968	8.513743	-45.000000	-35.718971	45.000000	-45.000000	-2056.727267	268.411504	139.865646	144.681260	737.723738	92.106547	-1.773729	-13.166444	
4.6300	36.112967	18.075296	22.548791	-271.681523	825.512024	9.461914	12.083394	36.680581	35.473768	45.000000	-43.182812	2429.504738	-1011.686751	32.743160	57.681461	1100.923609	106.573673	10.925323	3.680581	8.512084	-45.000000	-35.738540	45.000000	-45.000000	-2056.741194	268.410197	139.837840	144.776420	737.707285	91.901411	-1.768368	-13.163687	
4.6400	36.086621	18.056549	22.572488	-271.220552	825.442547	9.489941	12.085857	36.689942	35.482900	45.000000	-43.153213	2429.502966	-1011.688515	32.742738	57.727811	1100.959147	106.797166	10.915346	3.688702	8.513538	-45.000000	-35.744230	45.000000	-45.000000	-2056.773727	268.421906	139.821758	144.867019	737.689993	91.704285	-1.765733	-13.169772	
4.6500	36.057892	18.034867	22.600476	-270.761218	825.379205	9.504319	12.086682	36.695950	35.500194	45.000000	-43.121089	2429.500005	-1011.694898	32.734128	57.768842	1100.998288	107.027455	10.905021	3.695304	8.512595	-45.000000	-35.760198	45.000000	-45.000000	-2056.787757	268.426936	139.793483	144.960310	737.670474	91.514805	-1.760890	-13.169033	
4.6600	36.030891	18.013780	22.623479	-270.305109	825.322332	9.504217	12.091342	36.707582	35.493910	45.000000	-43.089960	2429.504010	-1011.691363	32.746399	57.807392	1101.022856	107.267172	10.885706	3.705438	8.515063	-45.000000	-35.764656	45.000000	-45.000000	-2056.831454	268.439328	139.784876	145.044676	737.655252	91.332960	-1.760814	-13.180684	
4.6700	36.005739	17.991652	22.646917	-269.852768	825.272061	9.489319	12.093951	36.715643	35.497844	45.000000	-43.050853	2429.504851	-1011.692489	32.751676	57.835463	1101.046521	107.518874	10.865232	3.715585	8.513881	-45.000000	-35.780940	45.000000	-45.000000	-2056.854503	268.441946	139.760469	145.129671	737.637560	91.159879	-1.758455	-13.184615	
4.6800	35.983745	17.971747	22.670694	-269.403612	825.228450	9.459799	12.097845	36.729090	35.489274	45.000000	-43.007530	2429.511166	-1011.685954	32.769741	57.856474	1101.065722	107.785465	10.834925	3.726904	8.516585	-45.000000	-35.784809	45.000000	-45.000000	-2056.898881	268.452160	139.755087	145.208229	737.624024	90.995826	-1.760440	-13.197979	
4.6900	35.965184	17.946474	22.690163	-268.955926	825.191678	9.416277	12.101979	36.737417	35.486364	45.000000	-42.958024	2429.519186	-1011.688553	32.792739	57.866568	1101.084216	108.068861	10.804208	3.738093	8.518529	-45.000000	-35.798552	45.000000	-45.000000	-2056.915445	268.452794	139.725384	145.286074	737.606891	90.843468	-1.759575	-13.201636	
4.7000	35.949888	17.926712	22.709290	-268.506765	825.162105	9.359780	12.103480	36.750732	35.482360	45.000000	-42.909768	2429.535056	-1011.685266	32.814033	57.867350	1101.104005	108.371213	10.766337	3.748097	8.525102	-45.000000	-35.805396	45.000000	-45.000000	-2056.951441	268.460370	139.711971	145.358502	737.593533	90.704675	-1.762531	-13.212473	
4.7100	35.935607	17.907882	22.726837	-268.052100	825.140281	9.291684	12.101761	36.759881	35.490890	45.000000	-42.850628	2429.545994	-1011.693977	32.828921	57.850417	1101.138162	108.696983	10.727495	3.755574	8.529437	-45.000000	-35.825175	45.000000	-45.000000	-2056.959752	268.461514	139.676587	145.433235	737.580658	90.580588	-1.763745	-13.212971	
4.7200	35.921549	17.902757	22.754671	-267.587300	825.126797	9.213707	12.093192	36.776380	35.505584	45.000000	-42.790237	2429.560812	-1011.690692	32.828321	57.821665	1101.189584	109.049024	10.682825	3.758256	8.539043	-45.000000	-35.833097	45.000000	-45.000000	-2056.987858	268.474868	139.663193	145.511978	737.578829	90.471501	-1.770302	-13.218623	
